<svg id="Layer_1" data-name="Layer 1" xmlns="http://www.w3.org/2000/svg" viewBox="0 0 505 105"><path d="M15.8,88.55h46c2.38,0,8.36-.13,10.62-.66a38,38,0,0,0-.13,14.87,70.47,70.47,0,0,0-10.63-.8H17.93A105.07,105.07,0,0,0,.4,103,98.8,98.8,0,0,0,1.46,85.9V19.24A98.93,98.93,0,0,0,.4,2.11,104,104,0,0,0,17.93,3.17H60.82a58.59,58.59,0,0,0,9.69-.66,36.08,36.08,0,0,0-.8,7.7,32.12,32.12,0,0,0,.67,7.17,58.69,58.69,0,0,0-9.7-.8H15.8V44.73H58.56a43.56,43.56,0,0,0,8.36-.66,31.26,31.26,0,0,0-.79,7.17,32.12,32.12,0,0,0,.66,7.17,42.28,42.28,0,0,0-8.23-.67H15.8Z"/><path d="M84.73,2.11a104.15,104.15,0,0,0,17.53,1.06h44.62A63.52,63.52,0,0,0,157,2.51a37.38,37.38,0,0,0-.8,7.83,32.64,32.64,0,0,0,.67,7.3,63.63,63.63,0,0,0-10.1-.79h-46.6V44.73H140.9a50.88,50.88,0,0,0,9-.66,32.47,32.47,0,0,0-.8,7.3,37,37,0,0,0,.67,7.7,49.43,49.43,0,0,0-8.9-.66H100.14V85.5a99,99,0,0,0,1.06,17.13A41.52,41.52,0,0,0,93,102a41.62,41.62,0,0,0-8.24.67A98.84,98.84,0,0,0,85.8,85.5V19.24A98.77,98.77,0,0,0,84.73,2.11Z"/><path d="M168.18,2.11a104,104,0,0,0,17.53,1.06h44.61a63.44,63.44,0,0,0,10.09-.66,37.39,37.39,0,0,0-.79,7.83,33.23,33.23,0,0,0,.66,7.3,63.5,63.5,0,0,0-10.09-.79H183.58V44.73h40.77a50.88,50.88,0,0,0,9-.66,32.47,32.47,0,0,0-.8,7.3,37,37,0,0,0,.66,7.7,49.25,49.25,0,0,0-8.89-.66H183.58V85.5a100,100,0,0,0,1.06,17.13,50.88,50.88,0,0,0-16.46,0,99,99,0,0,0,1.06-17.13V19.24A98.93,98.93,0,0,0,168.18,2.11Z"/><path d="M267,88.55H313c2.39,0,8.37-.13,10.62-.66a33.65,33.65,0,0,0-.79,7.43,34.57,34.57,0,0,0,.66,7.44,70.34,70.34,0,0,0-10.62-.8H269.15A105,105,0,0,0,251.63,103a99.81,99.81,0,0,0,1.06-17.12V19.24a99.94,99.94,0,0,0-1.06-17.13,104,104,0,0,0,17.52,1.06H312a58.71,58.71,0,0,0,9.7-.66,35.45,35.45,0,0,0-.8,7.7,32.12,32.12,0,0,0,.66,7.17,58.57,58.57,0,0,0-9.69-.8H267V44.73h42.75a43.66,43.66,0,0,0,8.37-.66,31.26,31.26,0,0,0-.8,7.17,32.12,32.12,0,0,0,.67,7.17,42.32,42.32,0,0,0-8.24-.67H267Z"/><path d="M410.6,33.71a32.78,32.78,0,0,0-7.31.67c-1.72-12-10.48-20.72-25.22-20.72-19.39,0-32,14.61-32,38.77S359,91.21,377.53,91.21c18.86,0,27.09-13.68,27.09-25.9,0-.79-.13-1.72-.13-2.52a35.73,35.73,0,0,0,7.57.66,37,37,0,0,0,7.7-.66c0,22.44-15.14,40.9-41.83,41.16-27.75,0-47.27-18.45-47.27-50.59,0-32.4,19.92-52.31,47.67-52.31,23.24,0,37.58,13.67,39.7,33.33A33.86,33.86,0,0,0,410.6,33.71Z"/><path d="M470.74,15.92V85.5a100,100,0,0,0,1.06,17.13,49.3,49.3,0,0,0-16.2,0,98.84,98.84,0,0,0,1.07-17.13V15.92H433.16a62.35,62.35,0,0,0-10.09.8,31,31,0,0,0,.67-7,31.26,31.26,0,0,0-.8-7.17A63.52,63.52,0,0,0,433,3.17h61.48a63.52,63.52,0,0,0,10.09-.66,31.26,31.26,0,0,0-.8,7.17,31,31,0,0,0,.67,7,62.35,62.35,0,0,0-10.09-.8Z"/></svg>