<svg id="Layer_1" data-name="Layer 1" xmlns="http://www.w3.org/2000/svg" viewBox="0 0 342 105"><path d="M1.19,85.83V19.57A99.94,99.94,0,0,0,.13,2.44a42.22,42.22,0,0,0,8.23.67,42.22,42.22,0,0,0,8.23-.67,99.94,99.94,0,0,0-1.06,17.13V88.62H56.29c2.39,0,8.37-.14,10.63-.67a33.67,33.67,0,0,0-.8,7.44,33.29,33.29,0,0,0,.66,7.3,70.24,70.24,0,0,0-10.62-.79H17.65A104,104,0,0,0,.13,103,99.94,99.94,0,0,0,1.19,85.83Z"/><path d="M160,86.09a162.58,162.58,0,0,0,7.17,16.34,47.82,47.82,0,0,0-8.76-.67,44.24,44.24,0,0,0-8.5.67c-.8-5.45-1.86-8.24-4.25-14.61L141,75.21h-40.9L95.34,87.82C93,94.19,91.89,97,91.09,102.43a42.83,42.83,0,0,0-8.37-.67,46.55,46.55,0,0,0-8.63.67c2-3.59,4.65-10.23,7-16.34l27.49-70.37a80.81,80.81,0,0,0,4-13.28,42.28,42.28,0,0,0,8.23.67,47.05,47.05,0,0,0,8.77-.67,89.91,89.91,0,0,0,4,13.28Zm-55-24h31.34l-8.23-23c-3.06-8.5-5.71-16.47-6.91-22.31h-.4c-1.06,5.45-4.51,15.4-7,22.18Z"/><path d="M216.11,42.54l32.27,43.55c4.51,6.11,9.69,13,13.41,16.6a89.17,89.17,0,0,0-12-.79,62.57,62.57,0,0,0-10.1.66c-.79-4.78-6.5-12.08-10.35-17.66l-23-32.53L191.81,67.11V85.43a98.93,98.93,0,0,0,1.06,17.13,51.64,51.64,0,0,0-16.46,0,99.94,99.94,0,0,0,1.06-17.13V19.57a99.94,99.94,0,0,0-1.06-17.13,42.22,42.22,0,0,0,8.23.67,42.28,42.28,0,0,0,8.23-.67,98.93,98.93,0,0,0-1.06,17.13V33.78a120.65,120.65,0,0,1-1.06,16.86l.53.13c2.52-3.58,6.77-8.1,12.48-13.94l19.39-19.92c4.51-4.64,11-9.82,12.21-14.47a65.92,65.92,0,0,0,10.36.67,85,85,0,0,0,11.68-.8c-4.64,3.32-11.95,10.49-17.92,16.6Z"/><path d="M285.31,88.48h45.94c2.39,0,8.37-.13,10.62-.66a33.68,33.68,0,0,0-.79,7.44,34.48,34.48,0,0,0,.66,7.43,70.34,70.34,0,0,0-10.62-.79H287.43A104.15,104.15,0,0,0,269.9,103,98.77,98.77,0,0,0,271,85.83V19.17A98.77,98.77,0,0,0,269.9,2a104,104,0,0,0,17.53,1.07h42.89A58.51,58.51,0,0,0,340,2.44a36.15,36.15,0,0,0-.79,7.7,32.07,32.07,0,0,0,.66,7.17,58.57,58.57,0,0,0-9.69-.79H285.31V44.67h42.75a43.73,43.73,0,0,0,8.37-.67,31.32,31.32,0,0,0-.8,7.17,31.49,31.49,0,0,0,.67,7.17,42.38,42.38,0,0,0-8.24-.66H285.31Z"/></svg>